<?xml version="1.0" encoding="utf-8"?>
<!-- Generator: Adobe Illustrator 22.0.1, SVG Export Plug-In . SVG Version: 6.00 Build 0)  -->
<svg version="1.1" id="Layer_1" xmlns="http://www.w3.org/2000/svg" xmlns:xlink="http://www.w3.org/1999/xlink" x="0px" y="0px"
	 viewBox="0 0 153 612" style="enable-background:new 0 0 153 612;" xml:space="preserve">
<style type="text/css">
	.st0{fill:#808080;}
	.st1{fill:#404040;}
</style>
<path class="st0" d="M136.6,80.5H16.4C7.3,80.5,0,87.8,0,96.9v120.2c0,9.1,7.3,16.4,16.4,16.4h120.2c9.1,0,16.4-7.3,16.4-16.4V96.9
	C153,87.8,145.7,80.5,136.6,80.5z M142.1,217.1c0,3-2.5,5.5-5.5,5.5H16.4c-3,0-5.5-2.5-5.5-5.5V96.9c0-3,2.5-5.5,5.5-5.5h120.2
	c3,0,5.5,2.5,5.5,5.5V217.1z M73.6,184.2l-39.3-39.3c-1.6-1.6-1.6-4.2,0-5.8l2.4-2.4c1.6-1.6,4.2-1.6,5.8,0l33.9,34l34-34
	c1.6-1.6,4.2-1.6,5.8,0l2.4,2.4c1.6,1.6,1.6,4.2,0,5.8l-39.3,39.3C77.8,185.8,75.2,185.8,73.6,184.2z"/>
<path class="st1" d="M136.6,387.5H16.4c-9.1,0-16.4,7.3-16.4,16.4v120.2c0,9.1,7.3,16.4,16.4,16.4h120.2c9.1,0,16.4-7.3,16.4-16.4
	V403.9C153,394.8,145.7,387.5,136.6,387.5z M142.1,524.1c0,3-2.5,5.5-5.5,5.5H16.4c-3,0-5.5-2.5-5.5-5.5V403.9c0-3,2.5-5.5,5.5-5.5
	h120.2c3,0,5.5,2.5,5.5,5.5V524.1z M73.6,491.2l-39.3-39.3c-1.6-1.6-1.6-4.2,0-5.8l2.4-2.4c1.6-1.6,4.2-1.6,5.8,0l33.9,34l34-34
	c1.6-1.6,4.2-1.6,5.8,0l2.4,2.4c1.6,1.6,1.6,4.2,0,5.8l-39.3,39.3C77.8,492.8,75.2,492.8,73.6,491.2z"/>
</svg>
